<?xml version="1.0" encoding="utf-8"?>
<!-- Generator: Adobe Illustrator 16.0.0, SVG Export Plug-In . SVG Version: 6.00 Build 0)  -->
<!DOCTYPE svg PUBLIC "-//W3C//DTD SVG 1.1//EN" "http://www.w3.org/Graphics/SVG/1.1/DTD/svg11.dtd">
<svg version="1.1" id="Layer_1" xmlns="http://www.w3.org/2000/svg" xmlns:xlink="http://www.w3.org/1999/xlink" x="0px" y="0px"
	 width="25px" height="19px" viewBox="0 0 25 19" enable-background="new 0 0 25 19" xml:space="preserve">
<g>
	<g>
		<defs>
			<rect id="SVGID_1_" width="25" height="19"/>
		</defs>
		<clipPath id="SVGID_2_">
			<use xlink:href="#SVGID_1_"  overflow="visible"/>
		</clipPath>
		<path clip-path="url(#SVGID_2_)" fill="#858585" d="M25,6.836v1.52c0,0.841-0.699,1.521-1.563,1.521L21.875,19H3.125L1.563,9.876
			C0.699,9.876,0,9.197,0,8.356v-1.52c0-0.841,0.699-1.521,1.563-1.521h9.189L10.7,5.376C9.873,6.342,10.006,7.783,11,8.587
			c0.421,0.342,0.953,0.528,1.5,0.528c0.698,0,1.354-0.298,1.8-0.82l2.554-2.981h6.584C24.301,5.315,25,5.995,25,6.836
			 M7.031,12.156c0-0.42-0.349-0.758-0.781-0.758s-0.781,0.338-0.781,0.758v4.563c0,0.422,0.349,0.762,0.781,0.762
			s0.781-0.34,0.781-0.762V12.156z M10.156,12.156c0-0.42-0.349-0.758-0.781-0.758s-0.781,0.338-0.781,0.758v4.563
			c0,0.422,0.349,0.762,0.781,0.762s0.781-0.34,0.781-0.762V12.156z M13.281,12.156c0-0.42-0.349-0.758-0.781-0.758
			s-0.782,0.338-0.782,0.758v4.563c0,0.422,0.35,0.762,0.782,0.762c0.433,0,0.781-0.34,0.781-0.762V12.156z M16.406,12.156
			c0-0.42-0.35-0.758-0.781-0.758s-0.781,0.338-0.781,0.758v4.563c0,0.422,0.35,0.762,0.781,0.762s0.781-0.34,0.781-0.762V12.156z
			 M19.531,12.156c0-0.42-0.35-0.758-0.781-0.758c-0.434,0-0.781,0.338-0.781,0.758v4.563c0,0.422,0.35,0.762,0.781,0.762
			s0.781-0.34,0.781-0.762V12.156z M11.498,7.978L11.498,7.978c-0.649-0.55-0.717-1.517-0.151-2.148l4.756-5.309
			c0.565-0.631,1.559-0.697,2.207-0.146c0.649,0.55,0.717,1.518,0.151,2.149l-4.758,5.308C13.141,8.463,12.146,8.529,11.498,7.978"
			/>
	</g>
</g>
</svg>
