<?xml version="1.0" encoding="utf-8"?>
<!-- Generator: Adobe Illustrator 16.0.0, SVG Export Plug-In . SVG Version: 6.00 Build 0)  -->
<!DOCTYPE svg PUBLIC "-//W3C//DTD SVG 1.1//EN" "http://www.w3.org/Graphics/SVG/1.1/DTD/svg11.dtd">
<svg version="1.1" id="Layer_1" xmlns="http://www.w3.org/2000/svg" xmlns:xlink="http://www.w3.org/1999/xlink" x="0px" y="0px"
	 width="22px" height="17px" viewBox="0 0 22 17" enable-background="new 0 0 22 17" xml:space="preserve">
<g>
	<g>
		<defs>
			<rect id="SVGID_1_" width="22" height="17"/>
		</defs>
		<clipPath id="SVGID_2_">
			<use xlink:href="#SVGID_1_"  overflow="visible"/>
		</clipPath>
		<path clip-path="url(#SVGID_2_)" fill="#333333" d="M22,6.116v1.36c0,0.752-0.615,1.36-1.376,1.36L19.25,17H2.75L1.375,8.837
			C0.615,8.837,0,8.229,0,7.477v-1.36c0-0.752,0.615-1.361,1.375-1.361h8.086L9.416,4.81C8.688,5.675,8.806,6.964,9.68,7.684
			c0.37,0.305,0.839,0.472,1.32,0.472c0.614,0,1.191-0.267,1.584-0.733l2.246-2.667h5.794C21.385,4.755,22,5.364,22,6.116
			 M6.187,10.877c0-0.375-0.307-0.679-0.687-0.679s-0.687,0.304-0.687,0.679v4.083c0,0.376,0.307,0.681,0.687,0.681
			s0.687-0.305,0.687-0.681V10.877z M8.937,10.877c0-0.375-0.307-0.679-0.687-0.679s-0.687,0.304-0.687,0.679v4.083
			c0,0.376,0.307,0.681,0.687,0.681s0.687-0.305,0.687-0.681V10.877z M11.688,10.877c0-0.375-0.307-0.679-0.688-0.679
			c-0.38,0-0.688,0.304-0.688,0.679v4.083c0,0.376,0.308,0.681,0.688,0.681c0.381,0,0.688-0.305,0.688-0.681V10.877z M14.438,10.877
			c0-0.375-0.307-0.679-0.688-0.679s-0.688,0.304-0.688,0.679v4.083c0,0.376,0.307,0.681,0.688,0.681s0.688-0.305,0.688-0.681
			V10.877z M17.188,10.877c0-0.375-0.308-0.679-0.688-0.679c-0.381,0-0.688,0.304-0.688,0.679v4.083
			c0,0.376,0.307,0.681,0.688,0.681c0.38,0,0.688-0.305,0.688-0.681V10.877z M10.118,7.138L10.118,7.138
			C9.547,6.646,9.487,5.78,9.985,5.215l4.186-4.75c0.499-0.565,1.372-0.624,1.943-0.131s0.631,1.358,0.133,1.923l-4.187,4.75
			C11.563,7.572,10.689,7.631,10.118,7.138"/>
	</g>
</g>
</svg>
