<?xml version="1.0" encoding="utf-8"?>
<!-- Generator: Adobe Illustrator 16.0.0, SVG Export Plug-In . SVG Version: 6.00 Build 0)  -->
<!DOCTYPE svg PUBLIC "-//W3C//DTD SVG 1.1//EN" "http://www.w3.org/Graphics/SVG/1.1/DTD/svg11.dtd">
<svg version="1.1" id="Layer_1" xmlns="http://www.w3.org/2000/svg" xmlns:xlink="http://www.w3.org/1999/xlink" x="0px" y="0px"
	 width="109px" height="33px" viewBox="0 0 109 33" enable-background="new 0 0 109 33" xml:space="preserve">
<g>
	<g>
		<path fill="#333333" d="M26.256,27.229c-0.596,2-1.372,3.273-2.329,4.143C22.988,32.202,21.435,33,18.925,33
			c-3.918,0-7.169-2.284-11.9-3.842c-0.343-0.106-0.668-0.178-0.885-0.249c-0.975,0.319-2.113,0.532-3.07,0.532
			c-1.011,0-1.715-0.213-1.715-0.728c0-0.46,0.632-0.761,2.004-0.761c0.813,0,1.842,0.105,2.781,0.301
			c1.715-0.441,2.799-1.133,4.171-1.629C4.082,26.023,0,21.297,0,13.56C0,5.451,4.876-0.001,11.756-0.001
			c7.024,0,11.719,4.833,11.719,13.136c0,7.648-4.333,12.924-10.582,13.508v0.019c-2.221,0.249-3.287,1.151-5.471,1.771
			c3.702,0.728,8.848,1.735,11.719,1.735c3.558,0,5.435-0.974,6.555-3.151L26.256,27.229z M11.864,26.041
			c4.804,0,7.909-5.258,7.909-12.765c0-7.719-3.611-12.623-8.162-12.623c-4.821,0-7.927,5.258-7.927,12.765
			C3.685,21.139,7.314,26.041,11.864,26.041z"/>
		<path fill="#333333" d="M43.294,22.271c0,2.177,0.668,3.186,2.817,3.186v0.762c-0.776-0.07-1.553-0.105-2.293-0.105
			c-1.445,0-2.781,0.143-3.846,0.514v-4.284c-1.264,3.151-3.702,4.354-6.067,4.354c-1.733,0-2.998-0.514-3.846-1.381
			c-0.921-0.975-1.228-2.461-1.228-4.744v-9.1c0-2.178-0.65-3.205-2.799-3.205V7.505c0.776,0.071,1.553,0.106,2.293,0.106
			c1.445,0,2.763-0.141,3.846-0.495v14.251c0,2.249,0.145,4.16,2.799,4.16c2.89,0,5.002-2.868,5.002-6.568v-7.488
			c0-2.178-0.668-3.205-2.817-3.205V7.505c0.776,0.071,1.553,0.106,2.293,0.106c1.444,0,2.781-0.141,3.846-0.495V22.271z"/>
		<path fill="#333333" d="M60.604,8.373c1.174,1.168,1.48,2.514,1.48,5.081v10.073c0,1.17,0.289,1.718,1.139,1.718
			c0.668,0,1.154-0.336,1.66-0.763l0.415,0.621c-1.028,0.762-1.806,1.326-3.376,1.326c-2.583,0-3.179-1.521-3.179-3.222
			c-1.591,2.567-3.918,3.222-5.688,3.222c-2.474,0-4.696-1.221-4.696-4.053c0-2.868,2.257-4.145,5.959-5.666
			c2.474-1.009,4.424-1.629,4.424-3.081v-2.248c0-3.045-1.518-3.647-3.432-3.647c-1.264,0-2.816,0.248-3.666,1.292
			c0.921,0.23,1.733,1.027,1.733,2.213c0,1.239-0.848,1.965-2.167,1.965c-1.264,0-2.004-0.938-2.004-2.249
			c0-1.062,0.704-1.894,1.733-2.584c1.047-0.673,2.816-1.363,5.183-1.363C58.202,7.009,59.755,7.541,60.604,8.373z M58.744,15.118
			c-0.396,0.584-1.209,0.956-3.539,2.071c-1.626,0.762-3.594,1.806-3.594,4.604c0,2.178,1.264,3.188,2.961,3.188
			c1.48,0,2.926-0.763,4.172-2.744V15.118z"/>
		<path fill="#333333" d="M77.825,7.541v0.726h-5.472v14.04c0,2.284,0.885,3.08,2.364,3.08c1.48,0,2.564-1.045,3.341-3.877
			l0.724,0.178c-0.507,2.832-1.808,5.01-4.804,5.01c-1.697,0-2.69-0.406-3.504-1.203c-1.084-1.08-1.443-2.496-1.443-5.081V8.266
			h-3.559V7.541h3.559V1.999c1.21-0.035,2.4-0.177,3.322-0.514V7.54L77.825,7.541L77.825,7.541z"/>
		<path fill="#333333" d="M96.943,16.87c0,6.958-3.7,9.825-8.396,9.825c-4.694,0-8.396-2.867-8.396-9.825
			c0-6.975,3.701-9.861,8.396-9.861C93.243,7.009,96.943,9.895,96.943,16.87z M83.744,16.87c0,6.479,2.005,9.101,4.804,9.101
			c2.817,0,4.804-2.619,4.804-9.101c0-6.497-1.985-9.135-4.804-9.135C85.749,7.735,83.744,10.373,83.744,16.87z"/>
	</g>
	<g>
		<path fill="#333333" d="M102.232,3.124c0,0.247,0.007,0.468,0.021,0.628h-0.18c-0.111-1.066-0.227-1.433-1.202-1.433h-0.423v4.358
			c0,0.621,0.134,0.715,0.79,0.737v0.153c-0.275-0.015-0.726-0.022-1.149-0.022c-0.47,0-0.908,0.007-1.156,0.022V7.415
			c0.657-0.022,0.791-0.116,0.791-0.737V2.319h-0.424c-0.978,0-1.096,0.367-1.203,1.433H97.92c0.016-0.161,0.021-0.382,0.021-0.628
			c0-0.191-0.016-0.591-0.058-0.98c0.649,0.022,1.564,0.022,2.206,0.022c0.643,0,1.546,0,2.194-0.022
			C102.247,2.532,102.232,2.933,102.232,3.124z"/>
		<path fill="#333333" d="M109,2.297c-0.529,0.022-0.633,0.101-0.633,0.658v3.801c0,0.558,0.104,0.636,0.633,0.659v0.153
			c-0.244-0.015-0.633-0.022-0.992-0.022c-0.408,0-0.781,0.007-0.999,0.022V7.415c0.53-0.022,0.63-0.101,0.63-0.659v-4.1
			l-1.882,4.949h-0.125l-1.97-4.972v4.044c0,0.563,0.104,0.715,0.71,0.737v0.153c-0.188-0.015-0.53-0.022-0.798-0.022
			c-0.264,0-0.555,0.007-0.725,0.022V7.415c0.529-0.022,0.633-0.176,0.633-0.737V2.955c0-0.558-0.104-0.636-0.633-0.658V2.143
			c0.17,0.015,0.461,0.022,0.725,0.022c0.229,0,0.496-0.007,0.668-0.022l1.718,4.445l1.679-4.422h0.369
			c0.359,0,0.748-0.007,0.992-0.022V2.297z"/>
	</g>
</g>
</svg>
