<?xml version="1.0" encoding="utf-8"?>
<!-- Generator: Adobe Illustrator 16.0.0, SVG Export Plug-In . SVG Version: 6.00 Build 0)  -->
<!DOCTYPE svg PUBLIC "-//W3C//DTD SVG 1.1//EN" "http://www.w3.org/Graphics/SVG/1.1/DTD/svg11.dtd">
<svg version="1.1" id="Layer_1" xmlns="http://www.w3.org/2000/svg" xmlns:xlink="http://www.w3.org/1999/xlink" x="0px" y="0px"
	 width="31px" height="17px" viewBox="0 0 31 17" enable-background="new 0 0 31 17" xml:space="preserve">
<g>
	<g>
		<path fill="#858585" d="M15.5,0C5.331,0,0,7.337,0,8.501C0,9.663,5.331,17,15.5,17S31,9.663,31,8.501C31,7.337,25.669,0,15.5,0
			L15.5,0z M15.5,15.039c-3.805,0-6.89-2.928-6.89-6.538c0-3.613,3.085-6.54,6.89-6.54c3.805,0,6.891,2.927,6.891,6.54
			C22.391,12.111,19.305,15.039,15.5,15.039L15.5,15.039z M18.943,8.501c0,1.806-1.541,3.269-3.443,3.269
			c-1.902,0-3.445-1.463-3.445-3.269c0-1.805,1.542-3.271,3.445-3.271c1.027,0-0.631,2.592,0,3.271
			C16.035,9.076,18.943,7.671,18.943,8.501L18.943,8.501z"/>
	</g>
</g>
</svg>
