<?xml version="1.0" encoding="utf-8"?>
<!-- Generator: Adobe Illustrator 16.0.0, SVG Export Plug-In . SVG Version: 6.00 Build 0)  -->
<!DOCTYPE svg PUBLIC "-//W3C//DTD SVG 1.1//EN" "http://www.w3.org/Graphics/SVG/1.1/DTD/svg11.dtd">
<svg version="1.1" id="Layer_1" xmlns="http://www.w3.org/2000/svg" xmlns:xlink="http://www.w3.org/1999/xlink" x="0px" y="0px"
	 width="24px" height="25px" viewBox="0 0 24 25" enable-background="new 0 0 24 25" xml:space="preserve">
<g>
	<g>
		<path fill="#333333" d="M23.925,11.119c-0.038-0.352-0.431-0.616-0.771-0.616c-1.1,0-2.075-0.672-2.484-1.713
			c-0.418-1.065-0.148-2.308,0.671-3.091c0.259-0.246,0.289-0.657,0.073-0.943c-0.563-0.745-1.202-1.417-1.9-2
			C19.238,2.528,18.837,2.56,18.6,2.833c-0.715,0.825-2,1.132-2.992,0.7c-1.032-0.453-1.686-1.543-1.621-2.714
			c0.021-0.368-0.236-0.688-0.588-0.73c-0.896-0.108-1.801-0.111-2.7-0.007c-0.348,0.04-0.606,0.352-0.594,0.716
			c0.039,1.159-0.621,2.23-1.644,2.667C7.479,3.882,6.203,3.578,5.489,2.76c-0.236-0.27-0.63-0.303-0.906-0.079
			c-0.719,0.588-1.373,1.261-1.941,2C2.421,4.967,2.454,5.383,2.714,5.63c0.835,0.788,1.105,2.041,0.671,3.119
			c-0.414,1.028-1.438,1.69-2.611,1.69c-0.38-0.013-0.651,0.253-0.693,0.614c-0.105,0.939-0.106,1.896-0.005,2.841
			c0.038,0.354,0.443,0.615,0.787,0.615c1.045-0.027,2.048,0.646,2.469,1.713c0.42,1.065,0.15,2.307-0.671,3.092
			c-0.257,0.246-0.29,0.656-0.073,0.94c0.557,0.74,1.197,1.413,1.898,2.001c0.275,0.23,0.675,0.198,0.914-0.074
			c0.718-0.828,2.003-1.135,2.992-0.701c1.036,0.451,1.688,1.541,1.624,2.713c-0.021,0.367,0.238,0.688,0.589,0.729
			c0.458,0.056,0.92,0.084,1.382,0.084c0.439,0,0.878-0.024,1.318-0.075c0.348-0.041,0.605-0.354,0.594-0.717
			c-0.039-1.158,0.621-2.23,1.643-2.666c0.988-0.42,2.258-0.111,2.973,0.704c0.236,0.269,0.629,0.302,0.905,0.079
			c0.718-0.586,1.37-1.259,1.94-1.999c0.223-0.287,0.189-0.703-0.071-0.95c-0.835-0.787-1.104-2.041-0.672-3.117
			c0.407-1.015,1.394-1.695,2.454-1.695l0.148,0.005c0.344,0.028,0.66-0.247,0.702-0.613C24.025,13.021,24.027,12.065,23.925,11.119
			L23.925,11.119z M12.019,16.702c-2.207,0-4.002-1.87-4.002-4.169c0-2.299,1.795-4.17,4.002-4.17c2.208,0,4.002,1.871,4.002,4.17
			C16.021,14.832,14.227,16.702,12.019,16.702L12.019,16.702z"/>
	</g>
</g>
</svg>
