<?xml version="1.0" encoding="utf-8"?>
<!-- Generator: Adobe Illustrator 16.0.0, SVG Export Plug-In . SVG Version: 6.00 Build 0)  -->
<!DOCTYPE svg PUBLIC "-//W3C//DTD SVG 1.1//EN" "http://www.w3.org/Graphics/SVG/1.1/DTD/svg11.dtd">
<svg version="1.1" id="Layer_1" xmlns="http://www.w3.org/2000/svg" xmlns:xlink="http://www.w3.org/1999/xlink" x="0px" y="0px"
	 width="25px" height="23px" viewBox="0 0 25 23" enable-background="new 0 0 25 23" xml:space="preserve">
<g>
	<path fill="#FFFFFF" d="M12.5,23c-0.235,0-0.46-0.097-0.62-0.267L1.889,12.129c-0.003-0.002-0.005-0.005-0.008-0.008
		C0.668,10.799,0,9.047,0,7.187s0.668-3.612,1.881-4.935l0.151-0.165C3.267,0.741,4.916,0,6.674,0c1.759,0,3.407,0.741,4.642,2.087
		L12.5,3.378l1.185-1.291C14.919,0.741,16.567,0,18.326,0c1.758,0,3.406,0.741,4.642,2.087l0.151,0.165
		C24.332,3.575,25,5.328,25,7.187c0,1.86-0.668,3.612-1.881,4.934c-0.002,0.004-0.005,0.006-0.008,0.008L13.12,22.733
		C12.96,22.903,12.735,23,12.5,23L12.5,23z M3.132,11.001l9.368,9.941l9.368-9.941c1.927-2.106,1.926-5.528-0.005-7.632l-0.15-0.165
		c-0.911-0.992-2.113-1.539-3.387-1.539c-1.274,0-2.477,0.546-3.387,1.538l-1.812,1.976c-0.16,0.174-0.389,0.274-0.628,0.274
		s-0.467-0.1-0.627-0.274l-1.812-1.976c-0.91-0.992-2.112-1.538-3.386-1.538S4.198,2.212,3.288,3.204L3.136,3.369
		C1.206,5.473,1.205,8.896,3.132,11.001L3.132,11.001z M3.132,11.001"/>
</g>
</svg>
