<?xml version="1.0" encoding="utf-8"?>
<!-- Generator: Adobe Illustrator 16.0.0, SVG Export Plug-In . SVG Version: 6.00 Build 0)  -->
<!DOCTYPE svg PUBLIC "-//W3C//DTD SVG 1.1//EN" "http://www.w3.org/Graphics/SVG/1.1/DTD/svg11.dtd">
<svg version="1.1" id="Layer_1" xmlns="http://www.w3.org/2000/svg" xmlns:xlink="http://www.w3.org/1999/xlink" x="0px" y="0px"
	 width="140px" height="43px" viewBox="0 0 140 43" enable-background="new 0 0 140 43" xml:space="preserve">
<g>
	<g enable-background="new    ">
		<path fill="#FFFFFF" d="M33.7,35.467c-0.765,2.603-1.761,4.26-2.99,5.388c-1.205,1.083-3.199,2.119-6.42,2.119
			c-5.03,0-9.202-2.97-15.275-4.997c-0.44-0.138-0.858-0.229-1.136-0.322c-1.251,0.415-2.711,0.691-3.94,0.691
			c-1.297,0-2.202-0.276-2.202-0.945c0-0.598,0.811-0.989,2.573-0.989c1.043,0,2.364,0.139,3.569,0.392
			c2.203-0.576,3.593-1.474,5.354-2.119C5.236,33.901-0.002,27.753-0.002,17.69c0-10.545,6.258-17.638,15.09-17.638
			c9.017,0,15.043,6.287,15.043,17.085c0,9.949-5.563,16.81-13.583,17.569v0.023c-2.851,0.323-4.219,1.497-7.023,2.303
			c4.752,0.944,11.358,2.258,15.043,2.258c4.566,0,6.977-1.267,8.414-4.099L33.7,35.467z M15.227,33.925
			c6.166,0,10.152-6.839,10.152-16.603c0-10.04-4.635-16.418-10.477-16.418c-6.189,0-10.176,6.839-10.176,16.603
			C4.727,27.546,9.386,33.925,15.227,33.925z"/>
		<path fill="#FFFFFF" d="M55.585,29.02c0,2.833,0.857,4.145,3.616,4.145v0.989c-0.997-0.091-1.994-0.137-2.943-0.137
			c-1.855,0-3.571,0.184-4.938,0.667v-5.571c-1.623,4.098-4.752,5.663-7.788,5.663c-2.226,0-3.848-0.667-4.938-1.795
			c-1.182-1.267-1.576-3.2-1.576-6.172V14.973c0-2.832-0.835-4.167-3.593-4.167v-0.99c0.997,0.092,1.994,0.138,2.944,0.138
			c1.854,0,3.546-0.184,4.937-0.645v18.537c0,2.924,0.186,5.411,3.593,5.411c3.708,0,6.421-3.731,6.421-8.544v-9.74
			c0-2.832-0.857-4.167-3.617-4.167v-0.99c0.998,0.092,1.994,0.138,2.944,0.138c1.854,0,3.57-0.184,4.938-0.645V29.02z"/>
		<path fill="#FFFFFF" d="M77.816,10.943c1.507,1.52,1.9,3.27,1.9,6.609v13.102c0,1.52,0.372,2.233,1.461,2.233
			c0.857,0,1.483-0.437,2.133-0.989l0.532,0.805c-1.32,0.99-2.318,1.728-4.334,1.728c-3.315,0-4.079-1.979-4.079-4.19
			c-2.04,3.339-5.031,4.19-7.302,4.19c-3.176,0-6.026-1.589-6.026-5.272c0-3.73,2.897-5.389,7.648-7.369
			c3.176-1.312,5.68-2.118,5.68-4.006v-2.925c0-3.96-1.947-4.744-4.404-4.744c-1.623,0-3.616,0.323-4.706,1.681
			c1.182,0.299,2.225,1.335,2.225,2.878c0,1.612-1.089,2.557-2.782,2.557c-1.623,0-2.573-1.221-2.573-2.924
			c0-1.382,0.905-2.464,2.226-3.362c1.344-0.875,3.616-1.772,6.653-1.772C74.733,9.171,76.728,9.861,77.816,10.943z M75.43,19.717
			c-0.511,0.76-1.554,1.243-4.544,2.694c-2.086,0.989-4.612,2.349-4.612,5.986c0,2.833,1.623,4.145,3.801,4.145
			c1.901,0,3.755-0.99,5.355-3.568V19.717z"/>
		<path fill="#FFFFFF" d="M99.933,9.861v0.945h-7.024v18.26c0,2.97,1.136,4.006,3.037,4.006c1.9,0,3.291-1.357,4.289-5.042
			l0.927,0.229c-0.648,3.686-2.318,6.517-6.166,6.517c-2.179,0-3.453-0.529-4.497-1.565c-1.391-1.404-1.854-3.247-1.854-6.608
			V10.806h-4.567V9.861h4.567V2.654c1.553-0.046,3.082-0.23,4.264-0.667v7.875H99.933z"/>
		<path fill="#FFFFFF" d="M124.48,21.996c0,9.05-4.752,12.779-10.778,12.779s-10.778-3.729-10.778-12.779
			c0-9.073,4.752-12.825,10.778-12.825S124.48,12.923,124.48,21.996z M107.537,21.996c0,8.428,2.571,11.836,6.165,11.836
			c3.616,0,6.166-3.408,6.166-11.836c0-8.45-2.55-11.882-6.166-11.882C110.108,10.114,107.537,13.546,107.537,21.996z"/>
	</g>
	<g enable-background="new    ">
		<path fill="#FFFFFF" d="M131.299,4.087c0,0.322,0.01,0.61,0.029,0.82h-0.231c-0.143-1.391-0.29-1.87-1.548-1.87h-0.545v5.688
			c0,0.811,0.172,0.932,1.018,0.961v0.2c-0.355-0.02-0.936-0.029-1.479-0.029c-0.605,0-1.17,0.01-1.49,0.029v-0.2
			c0.846-0.029,1.018-0.151,1.018-0.961V3.038h-0.545c-1.258,0-1.411,0.479-1.548,1.87h-0.231c0.02-0.21,0.029-0.498,0.029-0.82
			c0-0.249-0.02-0.771-0.073-1.279c0.836,0.029,2.016,0.029,2.841,0.029c0.824,0,1.99,0,2.825-0.029
			C131.318,3.316,131.299,3.839,131.299,4.087z"/>
		<path fill="#FFFFFF" d="M139.998,3.009c-0.684,0.029-0.815,0.131-0.815,0.859v4.96c0,0.727,0.132,0.829,0.815,0.858v0.2
			c-0.314-0.02-0.815-0.029-1.278-0.029c-0.524,0-1.007,0.01-1.287,0.029v-0.2c0.683-0.029,0.812-0.131,0.812-0.858V3.477
			l-2.424,6.459h-0.162l-2.536-6.489v5.278c0,0.733,0.133,0.932,0.914,0.961v0.2c-0.24-0.02-0.683-0.029-1.026-0.029
			c-0.339,0-0.714,0.01-0.934,0.029v-0.2c0.683-0.029,0.815-0.229,0.815-0.961V3.868c0-0.729-0.133-0.83-0.815-0.859V2.808
			c0.22,0.02,0.595,0.029,0.934,0.029c0.295,0,0.639-0.01,0.86-0.029l2.21,5.8l2.164-5.771h0.476c0.463,0,0.964-0.01,1.278-0.029
			V3.009z"/>
	</g>
</g>
</svg>
