<?xml version="1.0" encoding="utf-8"?>
<!-- Generator: Adobe Illustrator 16.0.0, SVG Export Plug-In . SVG Version: 6.00 Build 0)  -->
<!DOCTYPE svg PUBLIC "-//W3C//DTD SVG 1.1//EN" "http://www.w3.org/Graphics/SVG/1.1/DTD/svg11.dtd">
<svg version="1.1" id="Layer_1" xmlns="http://www.w3.org/2000/svg" xmlns:xlink="http://www.w3.org/1999/xlink" x="0px" y="0px"
	 width="163px" height="50px" viewBox="0 0 163 50" enable-background="new 0 0 163 50" xml:space="preserve">
<g>
	<g enable-background="new    ">
		<path fill="#FFFFFF" d="M39.238,41.254c-0.891,3.031-2.051,4.963-3.481,6.277C34.354,48.791,32.032,50,28.282,50
			c-5.857,0-10.714-3.461-17.784-5.822c-0.512-0.16-0.999-0.268-1.323-0.375c-1.456,0.482-3.156,0.805-4.587,0.805
			c-1.51,0-2.564-0.32-2.564-1.102c0-0.695,0.944-1.15,2.996-1.15c1.214,0,2.752,0.162,4.155,0.457
			c2.565-0.67,4.184-1.717,6.234-2.469C6.098,39.43,0,32.27,0,20.546C0,8.262,7.286,0,17.569,0c10.499,0,17.514,7.324,17.514,19.902
			c0,11.588-6.477,19.583-15.814,20.465v0.025c-3.319,0.377-4.912,1.746-8.177,2.684c5.533,1.102,13.224,2.631,17.514,2.631
			c5.316,0,8.124-1.475,9.796-4.773L39.238,41.254z M17.73,39.459c7.179,0,11.819-7.969,11.819-19.342
			c0-11.695-5.396-19.125-12.198-19.125c-7.206,0-11.847,7.967-11.847,19.34C5.505,32.027,10.929,39.459,17.73,39.459z"/>
		<path fill="#FFFFFF" d="M64.718,33.742c0,3.303,0.998,4.83,4.21,4.83v1.152c-1.161-0.107-2.322-0.16-3.427-0.16
			c-2.16,0-4.157,0.215-5.749,0.777v-6.49c-1.89,4.773-5.533,6.596-9.067,6.596c-2.592,0-4.48-0.773-5.75-2.09
			c-1.375-1.477-1.834-3.727-1.834-7.189V17.381c0-3.299-0.972-4.854-4.184-4.854v-1.154c1.161,0.107,2.322,0.161,3.428,0.161
			c2.158,0,4.128-0.214,5.748-0.751v21.594c0,3.404,0.216,6.303,4.183,6.303c4.317,0,7.476-4.346,7.476-9.953V17.381
			c0-3.299-0.998-4.854-4.211-4.854v-1.154c1.162,0.107,2.321,0.161,3.427,0.161c2.159,0,4.156-0.214,5.75-0.751V33.742z"/>
		<path fill="#FFFFFF" d="M90.602,12.686c1.756,1.771,2.213,3.809,2.213,7.698v15.263c0,1.771,0.433,2.602,1.7,2.602
			c0.998,0,1.728-0.508,2.483-1.15l0.619,0.938c-1.537,1.152-2.699,2.014-5.047,2.014c-3.858,0-4.748-2.307-4.748-4.881
			c-2.377,3.889-5.858,4.881-8.502,4.881c-3.697,0-7.016-1.852-7.016-6.143c0-4.344,3.373-6.277,8.904-8.583
			c3.696-1.528,6.614-2.467,6.614-4.666v-3.408c0-4.613-2.268-5.526-5.129-5.526c-1.891,0-4.209,0.376-5.479,1.958
			c1.376,0.349,2.591,1.555,2.591,3.353c0,1.878-1.268,2.979-3.239,2.979c-1.89,0-2.996-1.422-2.996-3.406
			c0-1.61,1.053-2.871,2.592-3.917c1.564-1.019,4.21-2.064,7.746-2.064C87.011,10.622,89.335,11.425,90.602,12.686z M87.822,22.906
			c-0.594,0.886-1.809,1.448-5.29,3.139c-2.428,1.152-5.369,2.734-5.369,6.973c0,3.301,1.89,4.828,4.426,4.828
			c2.214,0,4.372-1.152,6.233-4.154V22.906z"/>
		<path fill="#FFFFFF" d="M116.353,11.425v1.101h-8.179v21.271c0,3.461,1.322,4.668,3.535,4.668c2.212,0,3.831-1.582,4.993-5.875
			l1.08,0.268c-0.756,4.293-2.699,7.59-7.18,7.59c-2.537,0-4.021-0.613-5.234-1.82c-1.621-1.637-2.159-3.783-2.159-7.697V12.527
			h-5.317v-1.102h5.317V3.03c1.81-0.054,3.588-0.268,4.965-0.777v9.174h8.179V11.425z"/>
		<path fill="#FFFFFF" d="M144.933,25.563c0,10.541-5.533,14.885-12.55,14.885s-12.549-4.344-12.549-14.885
			c0-10.571,5.532-14.941,12.549-14.941S144.933,14.992,144.933,25.563z M125.205,25.563c0,9.816,2.991,13.787,7.178,13.787
			c4.21,0,7.179-3.971,7.179-13.787c0-9.845-2.969-13.842-7.179-13.842C128.196,11.721,125.205,15.718,125.205,25.563z"/>
	</g>
	<g enable-background="new    ">
		<path fill="#FFFFFF" d="M152.87,4.7c0,0.375,0.012,0.71,0.033,0.956h-0.269c-0.167-1.621-0.339-2.179-1.803-2.179h-0.636v6.626
			c0,0.945,0.201,1.086,1.186,1.119v0.233c-0.413-0.023-1.089-0.034-1.722-0.034c-0.705,0-1.361,0.012-1.734,0.034v-0.233
			c0.984-0.033,1.185-0.176,1.185-1.119V3.478h-0.635c-1.463,0-1.642,0.558-1.801,2.179h-0.27c0.023-0.245,0.033-0.58,0.033-0.956
			c0-0.29-0.022-0.898-0.084-1.49c0.973,0.034,2.347,0.034,3.308,0.034c0.959,0,2.315,0,3.289-0.034
			C152.894,3.801,152.87,4.411,152.87,4.7z"/>
		<path fill="#FFFFFF" d="M162.998,3.444c-0.796,0.034-0.948,0.153-0.948,1.001v5.778c0,0.847,0.152,0.966,0.948,0.999v0.233
			c-0.366-0.023-0.948-0.034-1.487-0.034c-0.611,0-1.173,0.012-1.498,0.034v-0.233c0.795-0.033,0.944-0.152,0.944-0.999V3.989
			l-2.822,7.524h-0.188l-2.951-7.56v6.149c0,0.854,0.154,1.086,1.064,1.119v0.233c-0.281-0.023-0.797-0.034-1.195-0.034
			c-0.396,0-0.831,0.012-1.088,0.034v-0.232c0.795-0.033,0.949-0.267,0.949-1.119V4.445c0-0.849-0.154-0.967-0.949-1.001V3.21
			c0.257,0.023,0.692,0.033,1.088,0.033c0.345,0,0.744-0.011,1.002-0.033l2.572,6.756l2.52-6.723h0.555
			c0.538,0,1.123-0.011,1.487-0.033L162.998,3.444L162.998,3.444z"/>
	</g>
</g>
</svg>
