<?xml version="1.0" encoding="utf-8"?>
<!-- Generator: Adobe Illustrator 16.0.0, SVG Export Plug-In . SVG Version: 6.00 Build 0)  -->
<!DOCTYPE svg PUBLIC "-//W3C//DTD SVG 1.1//EN" "http://www.w3.org/Graphics/SVG/1.1/DTD/svg11.dtd">
<svg version="1.1" id="Layer_1" xmlns="http://www.w3.org/2000/svg" xmlns:xlink="http://www.w3.org/1999/xlink" x="0px" y="0px"
	 width="39px" height="37px" viewBox="0 0 39 37" enable-background="new 0 0 39 37" xml:space="preserve">
<g>
	<g>
		<path fill="#4D4D4D" d="M32.125,13.946c0.199,0.496-0.035,1.062-0.523,1.264c0,0-9.348,3.868-9.352,3.87
			c-0.203,0.09-0.414,0.148-0.627,0.148c-0.52,0-1.027-0.256-1.334-0.729l-4.639-7.158c-0.482-0.746-0.278-1.748,0.458-2.237
			s1.725-0.282,2.208,0.464l4.624,7.134l7.939-3.287C31.365,13.212,31.926,13.45,32.125,13.946L32.125,13.946z M21.621,0
			C15.747,0,10.547,2.972,7.4,7.508C8.051,7.939,8.687,8.53,9.3,9.289c2.348-3.559,6.144-6.055,10.538-6.592l1.783,3.06l1.785-3.06
			c6.752,0.825,12.119,6.264,12.932,13.107l-3.02,1.809l3.02,1.809c-0.543,4.575-3.129,8.516-6.797,10.875
			c0.234,0.54,0.365,1.092,0.389,1.66c0.019,0.416-0.025,0.811-0.109,1.182C35.279,30.166,39,24.323,39,17.613
			C39,7.901,31.205,0,21.621,0L21.621,0z M26.057,29.008c-4.006-3.263-5.127-1.658-6.942,0.184c-1.271,1.287-4.481-1.4-7.255-4.211
			c-2.772-2.812-5.423-6.065-4.154-7.353c1.818-1.842,3.4-2.978,0.18-7.037c-3.22-4.061-5.367-0.944-7.128,0.841
			c-2.033,2.06-0.107,9.735,7.377,17.323c7.485,7.586,15.06,9.536,17.091,7.478C26.986,34.447,30.063,32.271,26.057,29.008
			L26.057,29.008z M5,12.792c-0.055,0.022-0.134,0.056-0.235,0.097c-0.191,0.075-0.419,0.158-0.673,0.271
			c-0.119,0.058-0.251,0.121-0.373,0.198c-0.125,0.076-0.25,0.163-0.363,0.27c-0.123,0.101-0.219,0.229-0.329,0.365
			c-0.083,0.149-0.188,0.301-0.246,0.484c-0.083,0.174-0.113,0.373-0.163,0.57c-0.038,0.199-0.045,0.406-0.069,0.609
			c-0.002,0.409,0.013,0.801,0.065,1.136c0.027,0.34,0.112,0.627,0.146,0.827c0.041,0.2,0.064,0.314,0.064,0.314
			s-0.06-0.1-0.167-0.273c-0.101-0.179-0.271-0.41-0.421-0.737c-0.172-0.318-0.333-0.709-0.487-1.149
			c-0.054-0.227-0.128-0.463-0.169-0.715c-0.029-0.255-0.077-0.519-0.057-0.796c-0.008-0.277,0.047-0.557,0.098-0.839
			c0.081-0.274,0.167-0.551,0.298-0.798c0.121-0.252,0.272-0.481,0.424-0.68c0.152-0.206,0.309-0.374,0.458-0.53
			c0.295-0.295,0.552-0.51,0.702-0.643c0.085-0.072,0.121-0.112,0.159-0.146c0.034-0.032,0.052-0.049,0.052-0.049l1.374,2.178
			C5.087,12.755,5.057,12.768,5,12.792L5,12.792z M25.619,33.48c-0.135,0.17-0.346,0.434-0.633,0.731
			c-0.152,0.146-0.312,0.306-0.506,0.455c-0.187,0.156-0.408,0.299-0.635,0.433c-0.234,0.131-0.484,0.242-0.748,0.325
			c-0.263,0.081-0.531,0.146-0.798,0.168l-0.396,0.028L21.521,35.6c-0.252-0.004-0.486-0.07-0.713-0.109
			c-0.228-0.042-0.433-0.127-0.627-0.186c-0.196-0.053-0.374-0.15-0.536-0.216c-0.328-0.133-0.564-0.286-0.742-0.381
			c-0.176-0.099-0.275-0.153-0.275-0.153s0.113,0.019,0.311,0.049c0.195,0.025,0.48,0.09,0.813,0.097
			c0.166,0.003,0.338,0.032,0.526,0.015c0.187-0.015,0.382-0.005,0.576-0.041c0.195-0.039,0.396-0.05,0.582-0.121l0.281-0.088
			l0.26-0.123c0.688-0.337,1.062-0.932,1.277-1.427c0.107-0.256,0.184-0.481,0.242-0.659c0.063-0.186,0.1-0.292,0.1-0.292
			l2.226,1.263C25.822,33.229,25.748,33.32,25.619,33.48L25.619,33.48z"/>
	</g>
</g>
</svg>
