<?xml version="1.0" encoding="utf-8"?>
<!-- Generator: Adobe Illustrator 16.0.0, SVG Export Plug-In . SVG Version: 6.00 Build 0)  -->
<!DOCTYPE svg PUBLIC "-//W3C//DTD SVG 1.1//EN" "http://www.w3.org/Graphics/SVG/1.1/DTD/svg11.dtd">
<svg version="1.1" id="Layer_1" xmlns="http://www.w3.org/2000/svg" xmlns:xlink="http://www.w3.org/1999/xlink" x="0px" y="0px"
	 width="24px" height="32px" viewBox="0 0 24 32" enable-background="new 0 0 24 32" xml:space="preserve">
<g>
	<path fill="#CB2028" d="M12,0C5.383,0,0,5.383,0,12c0,2.521,0.784,4.939,2.265,6.996l0.315,0.441L11.2,31.6
		c0.189,0.252,0.486,0.4,0.8,0.4s0.611-0.148,0.8-0.4l8.513-12.018L21.732,19C23.216,16.939,24,14.521,24,12C24,5.383,18.617,0,12,0
		L12,0z M12,16c-2.206,0-4-1.794-4-4s1.794-4,4-4s4,1.794,4,4S14.206,16,12,16L12,16z"/>
</g>
</svg>
