<?xml version="1.0" encoding="utf-8"?>
<!-- Generator: Adobe Illustrator 16.0.0, SVG Export Plug-In . SVG Version: 6.00 Build 0)  -->
<!DOCTYPE svg PUBLIC "-//W3C//DTD SVG 1.1//EN" "http://www.w3.org/Graphics/SVG/1.1/DTD/svg11.dtd">
<svg version="1.1" id="Layer_1" xmlns="http://www.w3.org/2000/svg" xmlns:xlink="http://www.w3.org/1999/xlink" x="0px" y="0px"
	 width="97px" height="30px" viewBox="0 0 97 30" enable-background="new 0 0 97 30" xml:space="preserve">
<g>
	<g enable-background="new    ">
		<path fill="#212121" d="M23.376,24.747c-0.53,1.818-1.22,2.977-2.071,3.766c-0.835,0.757-2.216,1.481-4.449,1.481
			c-3.485,0-6.376-2.077-10.583-3.493c-0.305-0.097-0.594-0.161-0.787-0.226c-0.867,0.29-1.879,0.483-2.73,0.483
			c-0.899,0-1.525-0.193-1.525-0.66c0-0.418,0.562-0.691,1.783-0.691c0.723,0,1.638,0.096,2.473,0.273
			c1.526-0.403,2.489-1.03,3.71-1.481c-5.541-0.548-9.17-4.844-9.17-11.877c0-7.372,4.336-12.328,10.455-12.328
			c6.248,0,10.423,4.394,10.423,11.942c0,6.952-3.854,11.749-9.411,12.28v0.016c-1.975,0.226-2.923,1.046-4.866,1.609
			c3.292,0.66,7.87,1.577,10.423,1.577c3.164,0,4.834-0.885,5.83-2.864L23.376,24.747z M10.576,23.668
			c4.272,0,7.034-4.78,7.034-11.604c0-7.017-3.211-11.475-7.259-11.475c-4.288,0-7.05,4.78-7.05,11.604
			C3.301,19.21,6.529,23.668,10.576,23.668z"/>
		<path fill="#212121" d="M38.539,20.24c0,1.979,0.594,2.897,2.505,2.897v0.691c-0.69-0.063-1.381-0.097-2.039-0.097
			c-1.286,0-2.474,0.129-3.421,0.467v-3.895c-1.124,2.864-3.292,3.959-5.396,3.959c-1.542,0-2.666-0.467-3.421-1.255
			c-0.819-0.885-1.092-2.237-1.092-4.313v-8.273c0-1.979-0.579-2.913-2.49-2.913V6.818c0.691,0.064,1.381,0.097,2.04,0.097
			c1.285,0,2.458-0.129,3.421-0.451V19.42c0,2.044,0.128,3.782,2.489,3.782c2.57,0,4.449-2.607,4.449-5.971v-6.809
			c0-1.979-0.594-2.913-2.505-2.913V6.818c0.69,0.064,1.381,0.097,2.04,0.097c1.284,0,2.473-0.129,3.42-0.451V20.24z"/>
		<path fill="#212121" d="M53.941,7.606c1.045,1.062,1.317,2.286,1.317,4.619v9.157c0,1.063,0.258,1.562,1.012,1.562
			c0.594,0,1.028-0.307,1.478-0.691l0.37,0.563c-0.916,0.692-1.606,1.207-3.003,1.207c-2.297,0-2.827-1.385-2.827-2.929
			c-1.413,2.333-3.485,2.929-5.059,2.929c-2.2,0-4.175-1.11-4.175-3.686c0-2.606,2.008-3.767,5.299-5.15
			c2.201-0.917,3.935-1.48,3.935-2.801v-2.043c0-2.769-1.349-3.315-3.051-3.315c-1.125,0-2.506,0.225-3.261,1.175
			c0.819,0.209,1.542,0.933,1.542,2.012c0,1.126-0.755,1.786-1.927,1.786c-1.125,0-1.783-0.853-1.783-2.044
			c0-0.965,0.626-1.722,1.542-2.35c0.931-0.611,2.505-1.239,4.61-1.239C51.807,6.367,53.188,6.85,53.941,7.606z M52.288,13.738
			c-0.354,0.532-1.076,0.869-3.148,1.884c-1.445,0.691-3.196,1.641-3.196,4.184c0,1.979,1.125,2.896,2.633,2.896
			c1.318,0,2.602-0.691,3.71-2.493V13.738z"/>
		<path fill="#212121" d="M69.265,6.85v0.66h-4.865v12.763c0,2.076,0.786,2.801,2.103,2.801c1.317,0,2.281-0.949,2.972-3.524
			l0.643,0.161c-0.449,2.574-1.605,4.554-4.271,4.554c-1.509,0-2.394-0.369-3.116-1.095c-0.964-0.98-1.285-2.269-1.285-4.618V7.51
			H58.28V6.85h3.163V1.813c1.077-0.032,2.137-0.161,2.956-0.467V6.85H69.265z"/>
		<path fill="#212121" d="M86.273,15.332c0,6.325-3.292,8.932-7.468,8.932c-4.175,0-7.468-2.606-7.468-8.932
			c0-6.341,3.293-8.965,7.468-8.965C82.981,6.367,86.273,8.991,86.273,15.332z M74.533,15.332c0,5.891,1.783,8.271,4.272,8.271
			c2.505,0,4.271-2.381,4.271-8.271c0-5.907-1.767-8.305-4.271-8.305C76.316,7.027,74.533,9.425,74.533,15.332z"/>
	</g>
	<g enable-background="new    ">
		<path fill="#212121" d="M90.997,2.814c0,0.225,0.007,0.426,0.021,0.573h-0.161c-0.1-0.972-0.201-1.307-1.072-1.307h-0.377v3.975
			c0,0.567,0.118,0.652,0.704,0.672v0.14c-0.246-0.013-0.647-0.02-1.025-0.02c-0.418,0-0.81,0.007-1.032,0.02v-0.14
			c0.586-0.021,0.705-0.105,0.705-0.672V2.081h-0.378c-0.871,0-0.978,0.334-1.072,1.307h-0.16c0.014-0.147,0.021-0.348,0.021-0.573
			c0-0.174-0.014-0.539-0.051-0.894c0.579,0.021,1.397,0.021,1.968,0.021c0.571,0,1.38,0,1.958-0.021
			C91.011,2.275,90.997,2.641,90.997,2.814z"/>
		<path fill="#212121" d="M97.025,2.061c-0.474,0.021-0.565,0.092-0.565,0.601v3.467c0,0.508,0.092,0.58,0.565,0.6v0.14
			c-0.219-0.013-0.565-0.02-0.886-0.02c-0.364,0-0.698,0.007-0.893,0.02v-0.14c0.474-0.021,0.563-0.092,0.563-0.6V2.388l-1.68,4.515
			h-0.111l-1.758-4.535v3.688c0,0.512,0.092,0.652,0.634,0.672v0.14c-0.167-0.013-0.473-0.02-0.712-0.02
			c-0.234,0-0.494,0.007-0.646,0.02v-0.14c0.473-0.021,0.565-0.16,0.565-0.672V2.661c0-0.509-0.093-0.58-0.565-0.601V1.92
			c0.152,0.014,0.412,0.021,0.646,0.021c0.204,0,0.442-0.007,0.596-0.021l1.532,4.054l1.499-4.034h0.33
			c0.32,0,0.667-0.007,0.886-0.021V2.061z"/>
	</g>
</g>
</svg>
