<?xml version="1.0" encoding="utf-8"?>
<!-- Generator: Adobe Illustrator 24.0.0, SVG Export Plug-In . SVG Version: 6.00 Build 0)  -->
<svg version="1.1" id="Layer_1" xmlns="http://www.w3.org/2000/svg" xmlns:xlink="http://www.w3.org/1999/xlink" x="0px" y="0px"
	 viewBox="0 0 22 17" style="enable-background:new 0 0 22 17;" xml:space="preserve">
<style type="text/css">
	.st0{fill:#2D2E82;}
</style>
<g>
	<path class="st0" d="M10.9,8.3c1,0,1.9-0.4,2.6-1.1c0.7-0.7,1.1-1.6,1.1-2.6s-0.4-1.9-1.1-2.6C12.8,1.4,11.9,1,10.9,1
		S9.1,1.4,8.4,2.1c-0.7,0.7-1,1.7-1,2.6c0,1,0.4,1.9,1.1,2.6S10,8.3,10.9,8.3z M9.1,2.9c0.5-0.5,1.2-0.8,1.9-0.8s1.4,0.2,1.9,0.8
		c0.5,0.5,0.8,1.2,0.8,1.9s-0.2,1.4-0.8,1.9c-0.5,0.5-1.2,0.8-1.9,0.8S9.6,7.3,9.1,6.8c-0.5-0.6-0.9-1.2-0.9-2
		C8.2,4,8.5,3.3,9.1,2.9z"/>
	<path class="st0" d="M17.2,12.7c0-0.3-0.1-0.6-0.2-0.9c-0.1-0.3-0.2-0.6-0.2-0.9s-0.2-0.6-0.4-0.9c-0.2-0.3-0.4-0.5-0.6-0.8
		S15.3,8.8,15,8.6c-0.2-0.2-0.6-0.2-1-0.2c-0.2,0-0.3,0.1-0.6,0.2c-0.2,0.1-0.4,0.2-0.6,0.4c-0.2,0.2-0.5,0.2-0.8,0.3
		c-0.3,0.1-0.6,0.2-0.9,0.2c-0.3,0-0.6-0.1-0.9-0.2C9.8,9.2,9.4,9.1,9.3,9C9.1,8.8,8.8,8.7,8.7,8.6C8.4,8.5,8.3,8.4,8.1,8.4
		C7.7,8.4,7.3,8.5,7,8.6S6.4,8.9,6.2,9.2S5.8,9.6,5.6,9.9c-0.2,0.2-0.2,0.5-0.4,0.8C5.1,11,5,11.3,4.9,11.6s-0.1,0.6-0.2,0.9
		c0,0.3,0,0.5,0,0.9c0,0.8,0.2,1.4,0.7,1.9S6.6,16,7.3,16h7.2c0.8,0,1.4-0.2,1.9-0.7s0.7-1.1,0.7-1.9C17.2,13.2,17.2,12.9,17.2,12.7
		z M15.9,14.8c-0.3,0.3-0.8,0.5-1.3,0.5H7.4c-0.5,0-1-0.2-1.3-0.5c-0.3-0.3-0.5-0.7-0.5-1.2c0-0.3,0-0.5,0-0.9
		c0-0.2,0.1-0.5,0.1-0.9c0.1-0.3,0.2-0.5,0.2-0.9c0.1-0.2,0.2-0.5,0.3-0.7C6.4,10,6.5,9.9,6.7,9.7C7,9.5,7.1,9.5,7.3,9.4
		S7.8,9.2,8,9.2c0,0,0.1,0.1,0.2,0.1c0.2,0.2,0.4,0.2,0.6,0.4c0.2,0.2,0.6,0.3,1,0.5c0.4,0.2,0.9,0.2,1.2,0.2s0.9-0.1,1.2-0.2
		c0.4-0.2,0.7-0.3,1-0.5c0.2-0.2,0.5-0.3,0.6-0.4c0.1-0.1,0.2-0.1,0.2-0.1c0.2,0,0.5,0.1,0.7,0.2c0.2,0.1,0.4,0.2,0.5,0.3
		c0.2,0.2,0.3,0.3,0.5,0.5s0.2,0.5,0.3,0.7c0.1,0.2,0.2,0.5,0.2,0.9c0.1,0.3,0.1,0.6,0.1,0.9l0,0c0,0.2,0,0.5,0,0.9
		C16.4,14.1,16.2,14.4,15.9,14.8z"/>
</g>
</svg>
