<?xml version="1.0" encoding="utf-8"?>
<!-- Generator: Adobe Illustrator 24.0.0, SVG Export Plug-In . SVG Version: 6.00 Build 0)  -->
<svg version="1.1" id="Layer_1" xmlns="http://www.w3.org/2000/svg" xmlns:xlink="http://www.w3.org/1999/xlink" x="0px" y="0px"
	 viewBox="0 0 22 17" style="enable-background:new 0 0 22 17;" xml:space="preserve">
<style type="text/css">
	.st0{fill:#4D4D4D;}
</style>
<g>
	<path class="st0" d="M10.9,8.2c1,0,1.9-0.4,2.7-1.1s1.1-1.6,1.1-2.7s-0.4-1.9-1.1-2.7c-0.8-0.6-1.7-1-2.7-1c-1,0-1.9,0.4-2.7,1.1
		S7.1,3.5,7.1,4.6s0.4,1.9,1.1,2.7C9,7.9,9.8,8.2,10.9,8.2z"/>
	<path class="st0" d="M17.4,12.6c0-0.3-0.1-0.6-0.2-1c-0.1-0.3-0.2-0.6-0.2-1c-0.1-0.3-0.2-0.6-0.4-0.9C16.4,9.5,16.2,9.2,16,9
		c-0.2-0.2-0.6-0.4-0.9-0.6c-0.3-0.2-0.7-0.2-1.1-0.2c-0.2,0-0.3,0.1-0.6,0.2c-0.2,0.1-0.4,0.2-0.6,0.4c-0.2,0.2-0.5,0.2-0.8,0.3
		c-0.3,0.1-0.6,0.2-1,0.2c-0.3,0-0.6-0.1-1-0.2S9.3,8.9,9.1,8.8C8.9,8.7,8.7,8.6,8.5,8.5C8.2,8.3,8.1,8.3,7.9,8.3
		c-0.4,0-0.8,0.1-1.1,0.2C6.5,8.7,6.1,8.8,5.9,9.1C5.6,9.3,5.5,9.5,5.2,9.9c-0.1,0.2-0.2,0.5-0.3,0.9c-0.1,0.3-0.2,0.6-0.2,1
		c0,0.4,0,0.7-0.1,1c0,0.3,0,0.6,0,0.9c0,0.8,0.2,1.4,0.7,1.9c0.5,0.5,1.1,0.7,1.9,0.7h7.4c0.8,0,1.4-0.2,1.9-0.7
		c0.5-0.5,0.7-1.1,0.7-1.9C17.4,13.3,17.4,13,17.4,12.6z"/>
</g>
</svg>
