<?xml version="1.0" encoding="utf-8"?>
<!-- Generator: Adobe Illustrator 16.0.0, SVG Export Plug-In . SVG Version: 6.00 Build 0)  -->
<!DOCTYPE svg PUBLIC "-//W3C//DTD SVG 1.1//EN" "http://www.w3.org/Graphics/SVG/1.1/DTD/svg11.dtd">
<svg version="1.1" id="Layer_1" xmlns="http://www.w3.org/2000/svg" xmlns:xlink="http://www.w3.org/1999/xlink" x="0px" y="0px"
	 width="16px" height="16px" viewBox="0 0 16 16" enable-background="new 0 0 16 16" xml:space="preserve">
<g>
	<g>
		<path fill="#4D4D4D" d="M10.686,1.831c-2.44-2.441-6.415-2.441-8.855,0c-2.439,2.442-2.439,6.412,0,8.854
			c2.175,2.172,5.56,2.405,7.999,0.707c0.052,0.243,0.17,0.477,0.358,0.664l3.553,3.557c0.52,0.517,1.355,0.517,1.871,0
			c0.52-0.518,0.52-1.354,0-1.871l-3.553-3.555c-0.188-0.188-0.422-0.306-0.664-0.356C13.091,7.389,12.857,4.004,10.686,1.831
			L10.686,1.831z M9.563,9.563c-1.821,1.821-4.788,1.821-6.608,0c-1.822-1.822-1.822-4.787,0-6.61c1.821-1.821,4.787-1.821,6.608,0
			C11.383,4.776,11.383,7.74,9.563,9.563L9.563,9.563z"/>
	</g>
</g>
</svg>
