<?xml version="1.0" encoding="utf-8"?>
<!-- Generator: Adobe Illustrator 16.0.0, SVG Export Plug-In . SVG Version: 6.00 Build 0)  -->
<!DOCTYPE svg PUBLIC "-//W3C//DTD SVG 1.1//EN" "http://www.w3.org/Graphics/SVG/1.1/DTD/svg11.dtd">
<svg version="1.1" id="Layer_1" xmlns="http://www.w3.org/2000/svg" xmlns:xlink="http://www.w3.org/1999/xlink" x="0px" y="0px"
	 width="17px" height="18px" viewBox="0 0 17 18" enable-background="new 0 0 17 18" xml:space="preserve">
<g>
	<g>
		<path fill="#2d2e82" d="M16.947,8.007C16.92,7.754,16.643,7.564,16.4,7.564c-0.779,0-1.471-0.484-1.76-1.233
			c-0.298-0.767-0.105-1.661,0.476-2.225c0.183-0.177,0.204-0.473,0.052-0.679c-0.398-0.536-0.852-1.021-1.348-1.44
			c-0.193-0.164-0.479-0.141-0.646,0.056c-0.506,0.594-1.417,0.815-2.119,0.504C10.323,2.22,9.861,1.435,9.907,0.592
			C9.922,0.328,9.739,0.097,9.49,0.066c-0.635-0.078-1.276-0.08-1.913-0.005C7.331,0.09,7.148,0.314,7.157,0.577
			c0.027,0.834-0.439,1.605-1.164,1.92c-0.695,0.3-1.599,0.081-2.104-0.508C3.721,1.795,3.442,1.771,3.247,1.932
			C2.738,2.355,2.274,2.84,1.872,3.372c-0.157,0.207-0.134,0.506,0.05,0.684c0.592,0.567,0.783,1.469,0.475,2.245
			c-0.293,0.74-1.019,1.217-1.849,1.217C0.279,7.508,0.087,7.7,0.057,7.959c-0.075,0.676-0.075,1.365-0.003,2.046
			c0.027,0.254,0.313,0.443,0.558,0.443c0.74-0.021,1.451,0.465,1.749,1.233c0.297,0.767,0.106,1.658-0.475,2.225
			c-0.182,0.178-0.205,0.473-0.052,0.678c0.395,0.533,0.848,1.018,1.345,1.441c0.195,0.166,0.478,0.143,0.647-0.055
			c0.509-0.598,1.419-0.816,2.119-0.507c0.733,0.325,1.195,1.11,1.15,1.953c-0.015,0.267,0.169,0.496,0.417,0.524
			c0.325,0.041,0.652,0.063,0.979,0.063c0.311,0,0.622-0.02,0.934-0.055c0.246-0.029,0.429-0.256,0.421-0.518
			c-0.029-0.834,0.438-1.604,1.162-1.92c0.7-0.302,1.6-0.08,2.105,0.508c0.168,0.192,0.445,0.219,0.642,0.059
			c0.509-0.422,0.972-0.906,1.375-1.438c0.157-0.207,0.136-0.508-0.051-0.687c-0.593-0.565-0.783-1.47-0.478-2.245
			c0.289-0.729,0.986-1.22,1.738-1.22l0.104,0.003c0.244,0.021,0.47-0.18,0.498-0.441C17.02,9.377,17.02,8.688,16.947,8.007
			L16.947,8.007z M8.514,12.027c-1.563,0-2.835-1.348-2.835-3.001c0-1.656,1.271-3.002,2.835-3.002S11.35,7.37,11.35,9.026
			S10.077,12.027,8.514,12.027L8.514,12.027z"/>
	</g>
</g>
</svg>
