<?xml version="1.0" encoding="utf-8"?>
<!-- Generator: Adobe Illustrator 16.0.0, SVG Export Plug-In . SVG Version: 6.00 Build 0)  -->
<!DOCTYPE svg PUBLIC "-//W3C//DTD SVG 1.1//EN" "http://www.w3.org/Graphics/SVG/1.1/DTD/svg11.dtd">
<svg version="1.1" id="Layer_1" xmlns="http://www.w3.org/2000/svg" xmlns:xlink="http://www.w3.org/1999/xlink" x="0px" y="0px"
	 width="110px" height="40px" viewBox="0 0 110 40" enable-background="new 0 0 110 40" xml:space="preserve">
<g>
	<path fill="#DBDBDB" d="M88,1c11.523,0,20.9,8.523,20.9,19c0,10.477-9.377,19-20.9,19H22C10.475,39,1.1,30.477,1.1,20
		C1.1,9.523,10.475,1,22,1H88 M88,0H22C9.85,0,0,8.954,0,20c0,11.045,9.85,20,22,20h66c12.148,0,22-8.955,22-20
		C110,8.954,100.148,0,88,0L88,0z"/>
</g>
</svg>
