<?xml version="1.0" encoding="utf-8"?>
<!-- Generator: Adobe Illustrator 16.0.0, SVG Export Plug-In . SVG Version: 6.00 Build 0)  -->
<!DOCTYPE svg PUBLIC "-//W3C//DTD SVG 1.1//EN" "http://www.w3.org/Graphics/SVG/1.1/DTD/svg11.dtd">
<svg version="1.1" id="Layer_1" xmlns="http://www.w3.org/2000/svg" xmlns:xlink="http://www.w3.org/1999/xlink" x="0px" y="0px"
	 width="16px" height="14px" viewBox="0 0 16 14" enable-background="new 0 0 16 14" xml:space="preserve">
<g>
	<path fill="#4D4D4D" d="M16,4.37c0,1.14-0.43,2.2-1.2,3.01c-0.01,0-0.01,0-0.01,0L8.4,13.84C8.29,13.939,8.15,14,8,14
		s-0.29-0.061-0.4-0.16L1.21,7.38c0,0,0,0-0.01,0C0.43,6.57,0,5.51,0,4.37c0-1.13,0.43-2.19,1.2-3l0.1-0.1C2.09,0.45,3.15,0,4.27,0
		C5.4,0,6.45,0.45,7.24,1.27L8,2.06l0.76-0.79C9.55,0.45,10.6,0,11.73,0c1.119,0,2.18,0.45,2.97,1.27l0.1,0.1
		C15.57,2.18,16,3.24,16,4.37z"/>
</g>
</svg>
