<?xml version="1.0" encoding="utf-8"?>
<!-- Generator: Adobe Illustrator 16.0.0, SVG Export Plug-In . SVG Version: 6.00 Build 0)  -->
<!DOCTYPE svg PUBLIC "-//W3C//DTD SVG 1.1//EN" "http://www.w3.org/Graphics/SVG/1.1/DTD/svg11.dtd">
<svg version="1.1" id="Layer_1" xmlns="http://www.w3.org/2000/svg" xmlns:xlink="http://www.w3.org/1999/xlink" x="0px" y="0px"
	 width="164px" height="50px" viewBox="0 0 164 50" enable-background="new 0 0 164 50" xml:space="preserve">
<g>
	<g enable-background="new    ">
		<path fill="#FFFFFF" d="M39.521,41.25c-0.896,3.029-2.063,4.961-3.501,6.275c-1.412,1.262-3.746,2.469-7.518,2.469
			c-5.891,0-10.776-3.461-17.887-5.822c-0.516-0.16-1.004-0.268-1.331-0.375c-1.466,0.482-3.175,0.805-4.614,0.805
			c-1.52,0-2.578-0.322-2.578-1.1c0-0.697,0.95-1.152,3.013-1.152c1.221,0,2.769,0.16,4.18,0.455
			c2.579-0.672,4.208-1.717,6.27-2.469C6.19,39.424,0.056,32.264,0.056,20.541c0-12.286,7.328-20.547,17.67-20.547
			c10.558,0,17.615,7.323,17.615,19.904c0,11.587-6.514,19.581-15.905,20.466v0.027c-3.338,0.375-4.94,1.742-8.225,2.682
			c5.565,1.1,13.301,2.629,17.616,2.629c5.347,0,8.169-1.475,9.853-4.773L39.521,41.25z M17.888,39.451
			c7.22,0,11.889-7.967,11.889-19.339c0-11.695-5.428-19.126-12.269-19.126c-7.247,0-11.915,7.967-11.915,19.341
			C5.593,32.021,11.049,39.451,17.888,39.451z"/>
		<path fill="#FFFFFF" d="M65.148,33.738c0,3.299,1.004,4.828,4.234,4.828v1.152c-1.167-0.105-2.335-0.16-3.447-0.16
			c-2.172,0-4.181,0.215-5.782,0.777v-6.49c-1.9,4.773-5.565,6.598-9.12,6.598c-2.606,0-4.505-0.777-5.781-2.092
			c-1.384-1.475-1.846-3.729-1.846-7.188V17.375c0-3.299-0.978-4.855-4.208-4.855v-1.154c1.168,0.108,2.335,0.161,3.448,0.161
			c2.171,0,4.153-0.214,5.781-0.751v21.594c0,3.406,0.217,6.303,4.207,6.303c4.343,0,7.519-4.346,7.519-9.951V17.375
			c0-3.299-1.004-4.855-4.235-4.855v-1.154c1.167,0.108,2.335,0.161,3.448,0.161c2.171,0,4.18-0.214,5.781-0.751V33.738z"/>
		<path fill="#FFFFFF" d="M91.18,12.682c1.766,1.77,2.227,3.809,2.227,7.698v15.263c0,1.771,0.435,2.602,1.71,2.602
			c1.003,0,1.737-0.51,2.497-1.152l0.625,0.938c-1.549,1.154-2.716,2.012-5.076,2.012c-3.882,0-4.777-2.307-4.777-4.881
			c-2.389,3.889-5.89,4.881-8.55,4.881c-3.719,0-7.057-1.85-7.057-6.143c0-4.344,3.393-6.277,8.956-8.583
			c3.72-1.528,6.65-2.467,6.65-4.667v-3.406c0-4.614-2.279-5.526-5.156-5.526c-1.901,0-4.235,0.375-5.511,1.958
			c1.384,0.349,2.606,1.556,2.606,3.353c0,1.878-1.276,2.978-3.257,2.978c-1.9,0-3.013-1.422-3.013-3.407
			c0-1.609,1.059-2.87,2.606-3.916c1.574-1.02,4.235-2.065,7.792-2.065C87.57,10.616,89.905,11.421,91.18,12.682z M88.385,22.901
			c-0.598,0.886-1.818,1.448-5.32,3.14c-2.443,1.152-5.401,2.734-5.401,6.973c0,3.299,1.9,4.828,4.451,4.828
			c2.227,0,4.397-1.152,6.271-4.156V22.901z"/>
		<path fill="#FFFFFF" d="M117.076,11.421v1.1h-8.223v21.271c0,3.461,1.329,4.668,3.555,4.668s3.854-1.582,5.021-5.873l1.086,0.268
			c-0.76,4.291-2.714,7.59-7.22,7.59c-2.55,0-4.044-0.615-5.266-1.824c-1.629-1.635-2.172-3.781-2.172-7.697V12.521h-5.347v-1.1
			h5.347V3.025c1.82-0.054,3.61-0.268,4.995-0.778v9.174H117.076z"/>
		<path fill="#FFFFFF" d="M145.823,25.557c0,10.542-5.564,14.886-12.622,14.886c-7.056,0-12.62-4.344-12.62-14.886
			c0-10.569,5.564-14.941,12.62-14.941C140.259,10.616,145.823,14.988,145.823,25.557z M125.981,25.557
			c0,9.818,3.013,13.787,7.22,13.787c4.234,0,7.22-3.969,7.22-13.787c0-9.845-2.985-13.841-7.22-13.841
			C128.994,11.716,125.981,15.712,125.981,25.557z"/>
	</g>
	<g enable-background="new    ">
		<path fill="#FFFFFF" d="M153.807,4.694c0,0.375,0.012,0.711,0.035,0.956h-0.271c-0.168-1.621-0.34-2.178-1.812-2.178h-0.639v6.625
			c0,0.944,0.201,1.086,1.191,1.12v0.233c-0.416-0.022-1.096-0.034-1.734-0.034c-0.706,0-1.368,0.011-1.743,0.034v-0.233
			c0.99-0.034,1.19-0.176,1.19-1.12V3.472h-0.638c-1.473,0-1.652,0.558-1.813,2.178h-0.271c0.022-0.245,0.034-0.581,0.034-0.956
			c0-0.289-0.022-0.898-0.085-1.49c0.978,0.034,2.36,0.034,3.324,0.034c0.967,0,2.333,0,3.31-0.034
			C153.83,3.796,153.807,4.405,153.807,4.694z"/>
		<path fill="#FFFFFF" d="M163.994,3.438c-0.801,0.034-0.955,0.153-0.955,1.001v5.778c0,0.847,0.154,0.966,0.955,1v0.233
			c-0.369-0.022-0.955-0.034-1.497-0.034c-0.615,0-1.18,0.011-1.508,0.034v-0.233c0.801-0.034,0.951-0.153,0.951-1V3.983
			l-2.839,7.525h-0.189l-2.97-7.559v6.148c0,0.854,0.154,1.086,1.07,1.12v0.233c-0.281-0.022-0.799-0.034-1.203-0.034
			c-0.396,0-0.835,0.011-1.093,0.034v-0.233c0.8-0.034,0.956-0.267,0.956-1.12V4.439c0-0.848-0.156-0.967-0.956-1.001V3.205
			c0.258,0.022,0.696,0.034,1.093,0.034c0.346,0,0.748-0.012,1.008-0.034l2.589,6.757l2.534-6.723h0.557
			c0.542,0,1.128-0.012,1.497-0.034V3.438z"/>
	</g>
</g>
</svg>
