<?xml version="1.0" encoding="utf-8"?>
<!-- Generator: Adobe Illustrator 16.0.0, SVG Export Plug-In . SVG Version: 6.00 Build 0)  -->
<!DOCTYPE svg PUBLIC "-//W3C//DTD SVG 1.1//EN" "http://www.w3.org/Graphics/SVG/1.1/DTD/svg11.dtd">
<svg version="1.1" id="Layer_1" xmlns="http://www.w3.org/2000/svg" xmlns:xlink="http://www.w3.org/1999/xlink" x="0px" y="0px"
	 width="140px" height="43px" viewBox="0 0 140 43" enable-background="new 0 0 140 43" xml:space="preserve">
<g>
	<g enable-background="new    ">
		<path fill="#212121" d="M33.822,35.442c-0.762,2.61-1.755,4.273-2.98,5.405c-1.201,1.086-3.188,2.126-6.399,2.126
			c-5.013,0-9.171-2.98-15.224-5.014c-0.439-0.139-0.855-0.23-1.132-0.323c-1.248,0.416-2.703,0.693-3.927,0.693
			c-1.293,0-2.194-0.277-2.194-0.947c0-0.601,0.808-0.993,2.564-0.993c1.04,0,2.356,0.139,3.558,0.393
			c2.195-0.578,3.581-1.479,5.336-2.126c-7.97-0.785-13.191-6.953-13.191-17.049c0-10.581,6.237-17.696,15.04-17.696
			c8.986,0,14.993,6.307,14.993,17.142c0,9.98-5.544,16.864-13.538,17.626v0.023c-2.841,0.323-4.205,1.501-7,2.31
			c4.736,0.947,11.32,2.265,14.993,2.265c4.551,0,6.954-1.271,8.386-4.112L33.822,35.442z M15.41,33.895
			c6.145,0,10.119-6.861,10.119-16.657c0-10.072-4.62-16.472-10.442-16.472c-6.168,0-10.142,6.861-10.142,16.657
			C4.945,27.495,9.588,33.895,15.41,33.895z"/>
		<path fill="#212121" d="M55.634,28.974c0,2.842,0.854,4.158,3.604,4.158v0.993c-0.993-0.092-1.987-0.139-2.934-0.139
			c-1.849,0-3.559,0.186-4.921,0.67v-5.59c-1.617,4.111-4.736,5.683-7.762,5.683c-2.218,0-3.835-0.67-4.921-1.802
			c-1.178-1.271-1.571-3.211-1.571-6.191V14.881c0-2.841-0.832-4.181-3.581-4.181V9.707c0.994,0.093,1.987,0.139,2.934,0.139
			c1.848,0,3.535-0.185,4.921-0.647v18.598c0,2.934,0.185,5.429,3.581,5.429c3.696,0,6.399-3.743,6.399-8.571v-9.772
			c0-2.841-0.855-4.181-3.604-4.181V9.707c0.993,0.093,1.987,0.139,2.934,0.139c1.848,0,3.558-0.185,4.921-0.647V28.974z"/>
		<path fill="#212121" d="M77.79,10.839c1.502,1.524,1.895,3.28,1.895,6.63v13.146c0,1.524,0.37,2.24,1.456,2.24
			c0.854,0,1.479-0.438,2.125-0.993l0.531,0.809c-1.316,0.993-2.311,1.732-4.32,1.732c-3.304,0-4.065-1.986-4.065-4.204
			c-2.033,3.35-5.014,4.204-7.277,4.204c-3.165,0-6.006-1.594-6.006-5.29c0-3.742,2.888-5.406,7.623-7.393
			c3.165-1.316,5.66-2.125,5.66-4.02v-2.934c0-3.974-1.94-4.759-4.39-4.759c-1.617,0-3.604,0.324-4.689,1.687
			c1.178,0.3,2.218,1.34,2.218,2.888c0,1.617-1.086,2.564-2.772,2.564c-1.617,0-2.564-1.225-2.564-2.934
			c0-1.386,0.901-2.472,2.218-3.373c1.34-0.878,3.604-1.779,6.631-1.779C74.718,9.06,76.705,9.753,77.79,10.839z M75.411,19.641
			c-0.509,0.763-1.548,1.247-4.528,2.703c-2.079,0.993-4.597,2.356-4.597,6.006c0,2.842,1.617,4.158,3.788,4.158
			c1.895,0,3.743-0.993,5.337-3.58V19.641z"/>
		<path fill="#212121" d="M99.832,9.753V10.7h-7V29.02c0,2.98,1.132,4.02,3.026,4.02s3.28-1.362,4.274-5.059l0.924,0.23
			c-0.646,3.696-2.311,6.538-6.146,6.538c-2.171,0-3.441-0.531-4.481-1.571c-1.386-1.409-1.848-3.257-1.848-6.63V10.7H84.03V9.753
			h4.552V2.522c1.548-0.046,3.072-0.231,4.25-0.67v7.901H99.832z"/>
		<path fill="#212121" d="M124.298,21.928c0,9.079-4.735,12.821-10.742,12.821c-6.006,0-10.742-3.742-10.742-12.821
			c0-9.103,4.736-12.868,10.742-12.868C119.563,9.06,124.298,12.825,124.298,21.928z M107.411,21.928
			c0,8.455,2.563,11.874,6.145,11.874c3.604,0,6.146-3.419,6.146-11.874c0-8.479-2.541-11.921-6.146-11.921
			C109.975,10.007,107.411,13.449,107.411,21.928z"/>
	</g>
	<g enable-background="new    ">
		<path fill="#212121" d="M131.094,3.96c0,0.323,0.01,0.612,0.029,0.823h-0.23c-0.143-1.396-0.289-1.876-1.543-1.876h-0.543v5.706
			c0,0.813,0.171,0.936,1.014,0.965v0.201c-0.354-0.02-0.932-0.029-1.475-0.029c-0.603,0-1.166,0.01-1.484,0.029V9.578
			c0.843-0.029,1.014-0.151,1.014-0.965V2.907h-0.543c-1.254,0-1.406,0.48-1.543,1.876h-0.23c0.02-0.211,0.029-0.5,0.029-0.823
			c0-0.249-0.02-0.773-0.073-1.283c0.833,0.029,2.009,0.029,2.831,0.029s1.984,0,2.816-0.029
			C131.113,3.187,131.094,3.711,131.094,3.96z"/>
		<path fill="#212121" d="M139.764,2.878c-0.681,0.029-0.813,0.132-0.813,0.862v4.977c0,0.729,0.132,0.832,0.813,0.861v0.201
			c-0.313-0.02-0.813-0.029-1.273-0.029c-0.523,0-1.004,0.01-1.283,0.029V9.578c0.681-0.029,0.809-0.132,0.809-0.861V3.348
			l-2.415,6.48h-0.162l-2.527-6.51v5.295c0,0.735,0.132,0.936,0.911,0.965v0.201c-0.24-0.02-0.681-0.029-1.023-0.029
			c-0.338,0-0.711,0.01-0.931,0.029V9.578c0.681-0.029,0.813-0.229,0.813-0.965V3.74c0-0.73-0.133-0.833-0.813-0.862V2.677
			c0.22,0.02,0.593,0.029,0.931,0.029c0.294,0,0.637-0.01,0.857-0.029l2.203,5.819l2.156-5.79h0.475c0.461,0,0.96-0.01,1.273-0.029
			V2.878z"/>
	</g>
</g>
</svg>
