<?xml version="1.0" encoding="utf-8"?>
<!-- Generator: Adobe Illustrator 16.0.0, SVG Export Plug-In . SVG Version: 6.00 Build 0)  -->
<!DOCTYPE svg PUBLIC "-//W3C//DTD SVG 1.1//EN" "http://www.w3.org/Graphics/SVG/1.1/DTD/svg11.dtd">
<svg version="1.1" id="Layer_1" xmlns="http://www.w3.org/2000/svg" xmlns:xlink="http://www.w3.org/1999/xlink" x="0px" y="0px"
	 width="110px" height="40px" viewBox="-5 0 110 40" enable-background="new -5 0 110 40" xml:space="preserve">
<g>
	<path fill="#3F3F40" d="M83,1c11.524,0,20.9,8.523,20.9,19c0,10.477-9.376,19-20.9,19H17C5.475,39-3.9,30.477-3.9,20
		C-3.9,9.523,5.475,1,17,1H83 M83,0H17C4.85,0-5,8.954-5,20c0,11.045,9.85,20,22,20h66c12.149,0,22-8.955,22-20
		C105,8.954,95.149,0,83,0L83,0z"/>
</g>
</svg>
