<?xml version="1.0" encoding="utf-8"?>
<!-- Generator: Adobe Illustrator 16.0.0, SVG Export Plug-In . SVG Version: 6.00 Build 0)  -->
<!DOCTYPE svg PUBLIC "-//W3C//DTD SVG 1.1//EN" "http://www.w3.org/Graphics/SVG/1.1/DTD/svg11.dtd">
<svg version="1.1" id="Layer_1" xmlns="http://www.w3.org/2000/svg" xmlns:xlink="http://www.w3.org/1999/xlink" x="0px" y="0px"
	 width="16px" height="14px" viewBox="0 0 16 14" enable-background="new 0 0 16 14" xml:space="preserve">
<g>
	<path fill="#FFFFFF" d="M8,14c-0.15,0-0.294-0.059-0.397-0.162L1.209,7.383C1.207,7.382,1.205,7.38,1.204,7.378
		C0.428,6.573,0,5.507,0,4.375s0.428-2.199,1.204-3.003l0.097-0.101C2.091,0.451,3.146,0,4.271,0s2.18,0.451,2.971,1.271L8,2.057
		l0.758-0.786C9.548,0.451,10.604,0,11.729,0S13.91,0.451,14.7,1.271l0.097,0.101C15.572,2.176,16,3.243,16,4.375
		s-0.428,2.199-1.204,3.003c-0.001,0.002-0.003,0.004-0.005,0.005l-6.394,6.455C8.294,13.941,8.15,14,8,14L8,14z M2.005,6.696
		L8,12.747l5.996-6.051c1.232-1.282,1.232-3.365-0.004-4.646l-0.096-0.1c-0.584-0.604-1.354-0.937-2.168-0.937
		c-0.815,0-1.584,0.333-2.166,0.937L8.402,3.152C8.299,3.259,8.153,3.32,8,3.32S7.701,3.259,7.599,3.152L6.439,1.95
		C5.856,1.346,5.087,1.014,4.271,1.014S2.687,1.346,2.104,1.95L2.007,2.051C0.772,3.332,0.771,5.415,2.005,6.696L2.005,6.696z"/>
</g>
</svg>
